# xmcd
#
# Track frame offsets:
#	150
#	5522
#	23185
#	37925
#	54425
#	73790
#	91065
#	110147
#	130885
#	147442
#	169242
#	191257
#
# Disc length: 2790 seconds
#
# Revision: 0
# Processed by: cddbd v1.4PL0 Copyright (c) Steve Scherf et al.
# Submitted via: dBpowerAMP V4.0
#
DISCID=a00ae40c
DTITLE=TQ - They Never Saw Me Coming
DYEAR=1998
DGENRE=R&B
TTITLE0=Change (Intro)
TTITLE1=Westside
TTITLE2=If The World Was Mine
TTITLE3=Paradise
TTITLE4=They Never Saw Me Coming
TTITLE5=Gotta Make That Money
TTITLE6=Remember Me Linda
TTITLE7=One More Lick
TTITLE8=Darlin' Mary
TTITLE9=When I Get Out
TTITLE10=Bye Bye Baby
TTITLE11=Detter Days
EXTD=
EXTT0=
EXTT1=
EXTT2=
EXTT3=
EXTT4=
EXTT5=
EXTT6=
EXTT7=
EXTT8=
EXTT9=
EXTT10=
EXTT11=
PLAYORDER=
